<svg xmlns="http://www.w3.org/2000/svg" viewBox="0 0 500 500"><linearGradient id="a" gradientUnits="userSpaceOnUse" x1="107.507" y1="3.194" x2="392.493" y2="496.806"><stop offset="0" stop-color="#4e6db4"/><stop offset="1" stop-color="#0c4c7d"/></linearGradient><path d="M373.2 490H126.8C62.6 490 10 437.4 10 373.2V126.8C10 62.6 62.6 10 126.8 10h246.3C437.4 10 490 62.6 490 126.8v246.3c0 64.3-52.6 116.9-116.8 116.9z" fill="url(#a)" stroke="#fff" stroke-width="18" stroke-miterlimit="10"/><path d="M400.2 104.8H100.4s-2.4 5.3-4.8 19.7c-2.3 13.7-2.7 24.1-2.8 24.1 21-1.8 43.8-3.1 67.6-4.1-11.4 40-21.1 85.8-28.6 128.6-7.7 43.2-13.4 83.5-20 122.2H158c1.9-13.8 4.1-28.6 6.6-44.3 26.4-17.2 55.5-36.4 85.7-57.1 31.2 21.3 61.1 41 88.1 58.6 2.4 15.1 4.4 29.4 6.3 42.8h46.2c-6.8-39-12.5-79.1-20.2-122.2-7.5-42.7-17-88.4-28.5-128.4 22.9 1 44.9 2.3 65.1 4 0 0 0-9-2-22-2-13.2-5.1-21.9-5.1-21.9zM166.8 336.9c4.6-28.1 10.2-58.7 16.6-89.7 18.5 13.2 37.8 26.8 57.1 40-25.9 17.7-50.8 34.4-73.7 49.7zm19-101.4c6.8-32.2 14.4-64.3 22.1-92.4 28.7-.5 58.1-.5 86.8 0 7.6 27.7 15.1 59.3 21.9 91-21.3 15.1-43.9 30.9-66.3 46.4-21.8-15-43.7-30.3-64.5-45zm74.2 51.6c20-13.7 40-27.8 59-41.4 6.6 32.1 12.4 63.8 17.1 92.7-23.6-15.6-49.4-32.9-76.1-51.3z" fill="#fff"/></svg>